<svg xmlns="http://www.w3.org/2000/svg" viewBox="0 0 1244.33 554.31">
                        <defs>
                            <style>
                            .cls-1 {
                                fill: #08a3f3;
                            }

                            .cls-2 {
                                fill: #2b2927;
                            }
                            </style>
                        </defs>
                        <title>dryice logo</title>
                        <g id="Layer_2" data-name="Layer 2">
                            <g id="Layer_1-2" data-name="Layer 1">
                                <circle class="cls-1" cx="141.66" cy="267.25" r="77"></circle>
                                <path class="cls-2" d="M233.33,0V159.84a141.5,141.5,0,1,0,0,215.32V413h50V0ZM141.5,359A91.5,91.5,0,1,1,233,267.5,91.5,91.5,0,0,1,141.5,359Z"></path>
                                <path class="cls-1" d="M909.44,327.45l39.12,31.16a141.5,141.5,0,1,1,2.67-172.76L911,215.57a91.5,91.5,0,1,0-1.56,111.88Z"></path>
                                <path class="cls-2" d="M430.33,127.19l-10,50.12c-2.47-.21-47.5.19-66,30.53V411h-50V121h50v43.65C368.83,139.5,398,127,422.83,127,425.35,127,427.85,127.07,430.33,127.19Z"></path>
                                <polygon class="cls-2" points="660.33 171 623.33 226.42 441.33 499 373.33 499 445.33 391.29 445.33 122 495.33 122 495.33 316.48 623.33 124.99 625.33 122 660.33 171"></polygon>
                                <polygon class="cls-1" points="673.33 122 673.33 412 623.33 412 623.33 124.99 625.33 122 673.33 122"></polygon>
                                <path class="cls-1" d="M1240.81,302a141.55,141.55,0,1,0-21.31,48.59l-29.06-23.14-10.21-8.13A91.53,91.53,0,0,1,1016.9,302ZM1013.2,252a91.52,91.52,0,0,1,179.26,0Z"></path>
                                <path d="M608.37,531.23l9.27-5.57q9.79,18,22.64,18a21.79,21.79,0,0,0,10.32-2.56,18.15,18.15,0,0,0,7.34-6.87,17.7,17.7,0,0,0,2.53-9.13,18.53,18.53,0,0,0-3.71-10.76q-5.13-7.28-18.71-17.52t-17-14.91a27.3,27.3,0,0,1-5.79-16.7,25.41,25.41,0,0,1,3.41-13,24.36,24.36,0,0,1,9.61-9.24,27.71,27.71,0,0,1,13.47-3.38,28.8,28.8,0,0,1,14.44,3.82q6.72,3.82,14.21,14.07l-8.9,6.75q-6.16-8.16-10.51-10.76a18.08,18.08,0,0,0-9.46-2.6,15,15,0,0,0-10.8,4,13.13,13.13,0,0,0-4.19,9.87,16.76,16.76,0,0,0,1.48,6.9,25.47,25.47,0,0,0,5.42,7.28q2.16,2.07,14.1,10.91,14.18,10.46,19.45,18.63a30,30,0,0,1,5.27,16.4q0,11.88-9,20.63a30.3,30.3,0,0,1-21.93,8.76,32.19,32.19,0,0,1-18-5.31Q615.19,543.71,608.37,531.23Z"></path>
                                <path d="M731.87,468.74q18.66,0,30.92,13.5a43.35,43.35,0,0,1-.63,58.75q-11.77,12.64-30.29,12.65T701.49,541a43.27,43.27,0,0,1-.63-58.67Q713.13,468.73,731.87,468.74Zm0,10.16a30,30,0,0,0-22.27,9.58,32,32,0,0,0-9.31,23.15A32.82,32.82,0,0,0,704.49,528,30.06,30.06,0,0,0,716,539.65a32.61,32.61,0,0,0,31.73,0A30,30,0,0,0,759.16,528a32.83,32.83,0,0,0,4.25-16.33,31.93,31.93,0,0,0-9.35-23.15A30,30,0,0,0,731.83,478.9Z"></path>
                                <path d="M791.61,439.64H802V551.56H791.61Z"></path>
                                <path d="M822.26,470.81h10.39v37.71q0,13.8,1.49,19a21.2,21.2,0,0,0,8.51,11.72,25.85,25.85,0,0,0,15,4.31,25.24,25.24,0,0,0,14.75-4.2,21.42,21.42,0,0,0,8.37-11q1.56-4.67,1.56-19.81V470.81h10.61v39.64q0,16.7-3.9,25.16a29.68,29.68,0,0,1-11.72,13.24q-7.83,4.8-19.63,4.79T838,548.85a29.53,29.53,0,0,1-11.8-13.35q-3.9-8.58-3.9-25.8Z"></path>
                                <path d="M925.06,440.83h10.39v30h16.47v9H935.45v71.77H925.06V479.79H910.88v-9h14.18Z"></path>
                                <path d="M971.11,437.56a8.58,8.58,0,0,1,0,17.15,8.14,8.14,0,0,1-6-2.53,8.23,8.23,0,0,1-2.51-6,8.32,8.32,0,0,1,2.51-6.08A8.18,8.18,0,0,1,971.11,437.56ZM966,470.81h10.39v80.75H966Z"></path>
                                <path d="M1036.16,468.74q18.66,0,30.93,13.5a43.37,43.37,0,0,1-.63,58.75q-11.79,12.64-30.3,12.65T1005.79,541a43.27,43.27,0,0,1-.63-58.67Q1017.43,468.73,1036.16,468.74Zm0,10.16a30,30,0,0,0-22.27,9.58,32,32,0,0,0-9.31,23.15,32.83,32.83,0,0,0,4.25,16.33,30,30,0,0,0,11.47,11.69,32.61,32.61,0,0,0,31.73,0A30,30,0,0,0,1063.46,528a32.83,32.83,0,0,0,4.25-16.33,31.93,31.93,0,0,0-9.35-23.15A30,30,0,0,0,1036.12,478.9Z"></path>
                                <path d="M1097.47,470.81h10.39v14.48a43.52,43.52,0,0,1,13.8-12.44,34,34,0,0,1,16.48-4.11,28.64,28.64,0,0,1,16.07,4.6,27.49,27.49,0,0,1,10.35,12.39q3.35,7.8,3.34,24.27v41.56h-10.39V513q0-13.95-1.16-18.62-1.8-8-6.92-12.07t-13.36-4a25.65,25.65,0,0,0-16.89,6.23,29.2,29.2,0,0,0-9.84,15.44q-1.48,6-1.48,22v29.61h-10.39Z"></path>
                                <path d="M1230.76,479.65l-6.68,6.9q-8.32-8.08-16.29-8.09a12.28,12.28,0,0,0-8.67,3.34,10.28,10.28,0,0,0-3.61,7.79,11.58,11.58,0,0,0,3,7.5q3,3.63,12.5,8.53,11.6,6,15.77,11.58a21.13,21.13,0,0,1,4.09,12.69,22.78,22.78,0,0,1-7,16.85,23.86,23.86,0,0,1-17.47,6.9,30.5,30.5,0,0,1-13.34-3,29,29,0,0,1-10.52-8.39l6.53-7.42q8,9,16.89,9a15.23,15.23,0,0,0,10.64-4,12.39,12.39,0,0,0,4.39-9.42,12.08,12.08,0,0,0-2.9-7.94q-2.91-3.42-13.09-8.61-10.93-5.64-14.88-11.14a20.94,20.94,0,0,1-3.94-12.54,20.4,20.4,0,0,1,6.28-15.29q6.29-6.09,15.87-6.08Q1219.47,468.74,1230.76,479.65Z"></path>
                                <polygon class="cls-2" points="750.63 29 673.54 109 631.19 109 683.33 29 750.63 29"></polygon>
                            </g>
                        </g>
                    </svg>